# xmcd CD database file
#
# Track frame offsets:
#	150
#	24234
#	47706
#	66664
#	86657
#	106715
#	129644
#	136960
#	161293
#	189027
#	196227
#	225318
#	248333
#	264851
#	292003
#	321381
#
# Disc length: 4530 seconds
#
# Revision: 5
# Processed by: cddbd v1.5.2PL0 Copyright (c) Steve Scherf et al.
# Submitted via: CDex 1.70beta2
#
DISCID=ce11b010
DTITLE=FictionJunction - FictionJunction 2008-2010 The BEST of Yuki Kajiura LIVE [Disc 2]
DYEAR=2010
DGENRE=Anime
TTITLE0=cynical world (Live)
TTITLE1=the image theme of Xenosaga II (Live)
TTITLE2=voyagers (Live)
TTITLE3=key of the twilight (Live)
TTITLE4=L.A. (Live)
TTITLE5=everytime you kissed me (Live)
TTITLE6=darklore 『aquarian age ~medley』 (Live)
TTITLE7=awake 『aquarian age ~medley』 (Live)
TTITLE8=zodiacal sign 『aquarian age ~medley』 (Live)
TTITLE9=媛星 『舞-HiME/舞-乙HiME ~medley』 (Live)
TTITLE10=目覚め 『舞-HiME/舞-乙HiME ~medley』 (Live)
TTITLE11=MATERIALISE 『舞-HiME/舞-乙HiME ~medley』 (Live)
TTITLE12=聖乙女の祈り 『舞-HiME/舞-乙HiME ~medley』 (Live)
TTITLE13=I reach for the sun (Live)
TTITLE14=open your heart (Live)
TTITLE15=a farewell song (Live)
EXTD=YEAR: 2010
EXTT0=
EXTT1=
EXTT2=
EXTT3=
EXTT4=
EXTT5=
EXTT6=
EXTT7=
EXTT8=
EXTT9=
EXTT10=
EXTT11=
EXTT12=
EXTT13=
EXTT14=
EXTT15=
PLAYORDER=
